<svg width="30" height="30" viewBox="0 0 30 30" fill="none" xmlns="http://www.w3.org/2000/svg">
<rect width="30" height="30" rx="3" fill="black"/>
<path fill-rule="evenodd" clip-rule="evenodd" d="M16.9164 10.4118C18.6904 9.93658 20.4645 9.46106 22.2385 8.98569L22.4121 8.93922C22.4874 8.91902 22.5622 8.93906 22.6173 8.99423C22.6725 9.04944 22.6926 9.12412 22.6723 9.19954L22.6259 9.37303C22.089 11.3769 21.5518 13.3806 21.0151 15.3844L20.9945 15.4613C20.9693 15.5555 20.8868 15.6188 20.7893 15.6188H16.2053C16.0883 15.6188 15.9928 15.5234 15.9928 15.4063V11.3355L14.7349 12.5933C14.6522 12.6761 14.5171 12.6761 14.4344 12.5933L13.1765 11.3355V15.4063C13.1765 15.5234 13.0811 15.6188 12.964 15.6188H8.38006C8.28251 15.6188 8.19998 15.5555 8.17475 15.4613L8.15418 15.3844C7.61743 13.3806 7.08036 11.3769 6.54345 9.37308L6.49692 9.19954C6.47677 9.12417 6.49677 9.04944 6.55193 8.99423C6.60714 8.93906 6.68188 8.91902 6.75724 8.93922L6.93079 8.98575C8.70481 9.46111 10.4788 9.93658 12.2529 10.4118L11.1931 9.35194C11.1241 9.28296 11.1105 9.17986 11.1593 9.09539L11.1991 9.02646C12.2365 7.23004 13.2735 5.43336 14.3108 3.63683L14.4006 3.48129C14.4396 3.41368 14.5066 3.375 14.5847 3.375C14.6627 3.375 14.7297 3.41368 14.7687 3.48129L14.8585 3.63683C15.8958 5.43336 16.9328 7.23004 17.9702 9.02646L18.01 9.09539C18.0588 9.17986 18.0453 9.28296 17.9763 9.35194L16.9164 10.4118Z" fill="#FEFEFE"/>
<path fill-rule="evenodd" clip-rule="evenodd" d="M15.3968 5.37793L14.689 6.08572V8.9041L16.4284 7.16467L15.3968 5.37793ZM14.4816 6.08572L13.7737 5.37793L12.7422 7.16467L14.4816 8.9041V6.08572Z" fill="#EC691F"/>
<path fill-rule="evenodd" clip-rule="evenodd" d="M14.6888 12.0157L17.5672 9.13732L16.5356 7.35059L14.6888 9.19735V12.0157ZM14.4814 9.19735L12.6346 7.35059L11.603 9.13732L14.4814 12.0157V9.19735Z" fill="#D62023"/>
<path fill-rule="evenodd" clip-rule="evenodd" d="M14.4808 4.15186L13.8804 5.19182L14.4808 5.79227V5.62024V4.15186ZM14.6883 5.79227L15.2887 5.19182L14.6883 4.15186V5.62024V5.79227Z" fill="#FFD500"/>
<path fill-rule="evenodd" clip-rule="evenodd" d="M8.54171 9.83643V10.8374L10.5346 12.8303L10.5345 10.3704L8.54171 9.83643ZM8.39501 10.9841H7.39404L7.92802 12.977H10.3879L8.39501 10.9841Z" fill="#EC691F"/>
<path fill-rule="evenodd" clip-rule="evenodd" d="M12.7352 15.0309V10.9603L10.7423 10.4263V13.038L12.7352 15.0309ZM10.5956 13.1847H7.98389L8.51787 15.1776H12.5885L10.5956 13.1847Z" fill="#D62023"/>
<path fill-rule="evenodd" clip-rule="evenodd" d="M7.02783 9.61667L7.33865 10.7766H8.18775L8.06612 10.655L7.02783 9.61667ZM8.33444 10.6299V9.78079L7.17453 9.46997L8.21282 10.5083L8.33444 10.6299Z" fill="#FFD500"/>
<path fill-rule="evenodd" clip-rule="evenodd" d="M20.6277 9.83643V10.8374L18.6348 12.8303V10.3704L20.6277 9.83643ZM20.7743 10.9841H21.7753L21.2413 12.9769H18.7815L20.7743 10.9841Z" fill="#EC691F"/>
<path fill-rule="evenodd" clip-rule="evenodd" d="M16.4341 15.0309V10.9603L18.4269 10.4263V13.038L16.4341 15.0309ZM18.5736 13.1847H21.1854L20.6514 15.1776H16.5808L18.5736 13.1847Z" fill="#D62023"/>
<path fill-rule="evenodd" clip-rule="evenodd" d="M22.1416 9.61667L21.8308 10.7766H20.9817L21.1033 10.655L22.1416 9.61667ZM20.835 10.6299V9.78079L21.9949 9.46997L20.9566 10.5083L20.835 10.6299Z" fill="#FFD500"/>
<path fill-rule="evenodd" clip-rule="evenodd" d="M26.6897 24.8538C27.1788 24.8538 27.5753 25.2502 27.5753 25.7393C27.5753 26.2284 27.1788 26.6248 26.6897 26.6248C26.2006 26.6248 25.8042 26.2284 25.8042 25.7393C25.8042 25.2502 26.2006 24.8538 26.6897 24.8538ZM26.3499 25.1711H26.6365C26.752 25.1711 26.8431 25.1995 26.9097 25.2561C26.9764 25.3128 27.0097 25.3905 27.0097 25.4894C27.0097 25.5549 26.9936 25.6116 26.9614 25.6593C26.9292 25.7071 26.8819 25.7432 26.8198 25.7676C26.8323 25.7761 27.1002 26.2047 27.1689 26.3074H26.974C26.9449 26.2621 26.7703 25.978 26.7139 25.8862C26.6834 25.8365 26.6425 25.8143 26.5815 25.8143H26.5132V26.3074H26.3499V25.1711ZM26.5132 25.3111V25.6676H26.6182C26.6992 25.6676 26.7581 25.6488 26.7948 25.611C26.8258 25.5799 26.8414 25.5372 26.8414 25.4827C26.8414 25.4283 26.8234 25.3861 26.7873 25.3561C26.7512 25.3261 26.6948 25.3111 26.6182 25.3111H26.5132ZM26.6897 24.9718C26.2658 24.9718 25.9223 25.3154 25.9223 25.7393C25.9223 26.1632 26.2658 26.5068 26.6897 26.5068C27.1136 26.5068 27.4572 26.1632 27.4572 25.7393C27.4572 25.3154 27.1136 24.9718 26.6897 24.9718Z" fill="#FEFEFE"/>
<path d="M26.0603 19.8221H24.052L22.7848 26.0695H19.3886L20.6558 19.8221H16.474L17.0062 17.1989H27.5749L26.0603 19.8221ZM19.2038 23.4463L18.6852 26.0695H11.0809L12.8804 17.1989H16.2892L15.0219 23.4463H19.2038ZM6.83883 23.6365C7.85571 24.2381 9.84624 23.9112 10.8961 23.4463L9.1653 26.4442C6.40214 27.0493 2.84426 26.212 2.45106 22.7747C2.17557 20.367 4.05661 18.1957 6.79283 17.4981C8.49405 17.0644 10.3904 17.1989 12.1634 17.1989L12.1633 17.1995L11.6313 19.8221H10.9288H10.2141C8.67712 19.8443 6.03412 20.0156 6.00256 22.1282C5.99314 22.7618 6.34771 23.3459 6.83883 23.6365Z" fill="#FFD500"/>
</svg>
