<svg width="45" height="46" viewBox="0 0 45 46" fill="none" xmlns="http://www.w3.org/2000/svg">
<circle cx="22.5" cy="23.3887" r="22" stroke="#FE8740"/>
<path d="M15.0341 17.7523V29.3887H13.2727V19.5137H13.2045L10.4205 21.3319V19.65L13.3239 17.7523H15.0341ZM22.1136 29.5478C21.2992 29.5478 20.5795 29.4076 19.9545 29.1273C19.3333 28.847 18.8466 28.4606 18.4943 27.9682C18.142 27.4758 17.9678 26.9152 17.9716 26.2864C17.9678 25.794 18.0682 25.3413 18.2727 24.9284C18.4811 24.5118 18.7633 24.1652 19.1193 23.8887C19.4754 23.6084 19.8731 23.4303 20.3125 23.3546V23.2864C19.733 23.1462 19.2689 22.8356 18.9205 22.3546C18.572 21.8735 18.3996 21.3205 18.4034 20.6955C18.3996 20.1008 18.5568 19.5705 18.875 19.1046C19.197 18.6349 19.6383 18.2656 20.1989 17.9966C20.7595 17.7277 21.3977 17.5932 22.1136 17.5932C22.822 17.5932 23.4545 17.7296 24.0114 18.0023C24.572 18.2712 25.0133 18.6406 25.3352 19.1103C25.6572 19.5762 25.8201 20.1046 25.8239 20.6955C25.8201 21.3205 25.642 21.8735 25.2898 22.3546C24.9375 22.8356 24.4792 23.1462 23.9148 23.2864V23.3546C24.3504 23.4303 24.7424 23.6084 25.0909 23.8887C25.4432 24.1652 25.7235 24.5118 25.9318 24.9284C26.1439 25.3413 26.2519 25.794 26.2557 26.2864C26.2519 26.9152 26.0739 27.4758 25.7216 27.9682C25.3693 28.4606 24.8807 28.847 24.2557 29.1273C23.6345 29.4076 22.9205 29.5478 22.1136 29.5478ZM22.1136 28.1103C22.5947 28.1103 23.0114 28.0307 23.3636 27.8716C23.7159 27.7087 23.9886 27.4834 24.1818 27.1955C24.375 26.9038 24.4735 26.5629 24.4773 26.1728C24.4735 25.7675 24.3674 25.4095 24.1591 25.0989C23.9545 24.7883 23.6761 24.544 23.3239 24.3659C22.9716 24.1879 22.5682 24.0989 22.1136 24.0989C21.6553 24.0989 21.2481 24.1879 20.892 24.3659C20.536 24.544 20.2557 24.7883 20.0511 25.0989C19.8466 25.4095 19.7462 25.7675 19.75 26.1728C19.7462 26.5629 19.839 26.9038 20.0284 27.1955C20.2216 27.4834 20.4962 27.7087 20.8523 27.8716C21.2083 28.0307 21.6288 28.1103 22.1136 28.1103ZM22.1136 22.6955C22.5 22.6955 22.8428 22.6178 23.142 22.4625C23.4413 22.3072 23.6761 22.0913 23.8466 21.8148C24.0208 21.5383 24.1098 21.2144 24.1136 20.8432C24.1098 20.4796 24.0227 20.1614 23.8523 19.8887C23.6856 19.6159 23.4527 19.4057 23.1534 19.258C22.8542 19.1065 22.5076 19.0307 22.1136 19.0307C21.7121 19.0307 21.3598 19.1065 21.0568 19.258C20.7576 19.4057 20.5246 19.6159 20.358 19.8887C20.1913 20.1614 20.1098 20.4796 20.1136 20.8432C20.1098 21.2144 20.1932 21.5383 20.3636 21.8148C20.5341 22.0913 20.7689 22.3072 21.0682 22.4625C21.3712 22.6178 21.7197 22.6955 22.1136 22.6955ZM31.7344 27.4341V19.7523H33.2628V27.4341H31.7344ZM28.6605 24.3546V22.8319H36.3423V24.3546H28.6605Z" fill="#FE8740"/>
</svg>
